<svg version="1.1" xmlns="http://www.w3.org/2000/svg" viewBox="0 0 875.7157449048017 688.1513138330336" width="875.7157449048017" height="688.1513138330336">

  <rect x="0" y="0" width="875.7157449048017" height="688.1513138330336" fill="#ffffff"></rect><g stroke-linecap="round"><g transform="translate(122.16836133307186 373.4141737651847) rotate(0 58.21521795792296 31.0515214266901)"><path d="M0 0 C3.9 7.25, 3.99 33.13, 23.4 43.48 C42.8 53.83, 100.93 59, 116.43 62.1 M0 0 C3.9 7.25, 3.99 33.13, 23.4 43.48 C42.8 53.83, 100.93 59, 116.43 62.1" stroke="#1e1e1e" stroke-width="2" fill="none"></path></g><g transform="translate(122.16836133307186 373.4141737651847) rotate(0 58.21521795792296 31.0515214266901)"><path d="M87.04 68.14 C98.65 65.75, 110.25 63.37, 116.43 62.1 M87.04 68.14 C93.77 66.75, 100.5 65.37, 116.43 62.1" stroke="#1e1e1e" stroke-width="2" fill="none"></path></g><g transform="translate(122.16836133307186 373.4141737651847) rotate(0 58.21521795792296 31.0515214266901)"><path d="M90.04 47.83 C100.46 53.47, 110.88 59.1, 116.43 62.1 M90.04 47.83 C96.08 51.1, 102.12 54.37, 116.43 62.1" stroke="#1e1e1e" stroke-width="2" fill="none"></path></g></g><mask></mask><g transform="translate(10 304.5160282388006) rotate(0 105.91443566595768 27.8714786515813)"><text x="0" y="0" font-family="Virgil, Segoe UI Emoji" font-size="22.297182921265048px" fill="#1e1e1e" text-anchor="start" style="white-space: pre;" direction="ltr" dominant-baseline="text-before-edge">double click to edit</text><text x="0" y="27.87147865158131" font-family="Virgil, Segoe UI Emoji" font-size="22.297182921265048px" fill="#1e1e1e" text-anchor="start" style="white-space: pre;" direction="ltr" dominant-baseline="text-before-edge">the text content</text></g><g stroke-linecap="round"><g transform="translate(723.2977687663112 104.61146886633722) rotate(0 -49.2302814678161 47.78989442915872)"><path d="M0 0 C-2.04 12.36, 4.19 58.2, -12.22 74.13 C-28.63 90.06, -84.09 92.01, -98.46 95.58 M0 0 C-2.04 12.36, 4.19 58.2, -12.22 74.13 C-28.63 90.06, -84.09 92.01, -98.46 95.58" stroke="#1e1e1e" stroke-width="2" fill="none"></path></g><g transform="translate(723.2977687663112 104.61146886633722) rotate(0 -49.2302814678161 47.78989442915872)"><path d="M-72.05 81.35 C-79.17 85.18, -86.29 89.02, -98.46 95.58 M-72.05 81.35 C-80.32 85.81, -88.6 90.26, -98.46 95.58" stroke="#1e1e1e" stroke-width="2" fill="none"></path></g><g transform="translate(723.2977687663112 104.61146886633722) rotate(0 -49.2302814678161 47.78989442915872)"><path d="M-69.08 101.65 C-77 100.02, -84.92 98.38, -98.46 95.58 M-69.08 101.65 C-78.28 99.75, -87.49 97.85, -98.46 95.58" stroke="#1e1e1e" stroke-width="2" fill="none"></path></g></g><mask></mask><g transform="translate(613.3992944234067 35.044247945149806) rotate(0 123.80654065664993 27.871478651581313)"><text x="0" y="0" font-family="Virgil, Segoe UI Emoji" font-size="22.297182921265048px" fill="#1e1e1e" text-anchor="start" style="white-space: pre;" direction="ltr" dominant-baseline="text-before-edge">click on the image </text><text x="0" y="27.87147865158131" font-family="Virgil, Segoe UI Emoji" font-size="22.297182921265048px" fill="#1e1e1e" text-anchor="start" style="white-space: pre;" direction="ltr" dominant-baseline="text-before-edge">to use one of you own</text></g><g stroke-linecap="round"><g transform="translate(576.0463929414342 647.2030404284429) rotate(0 46.95691776272702 -35.66004350848846)"><path d="M0 0 C15.61 -10.36, 89.33 -50.28, 93.69 -62.16 C98.05 -74.05, 37.42 -69.79, 26.16 -71.32 M0 0 C15.61 -10.36, 89.33 -50.28, 93.69 -62.16 C98.05 -74.05, 37.42 -69.79, 26.16 -71.32" stroke="#1e1e1e" stroke-width="2" fill="none"></path></g><g transform="translate(576.0463929414342 647.2030404284429) rotate(0 46.95691776272702 -35.66004350848846)"><path d="M54.55 -81.02 C44.5 -77.58, 34.45 -74.15, 26.16 -71.32 M54.55 -81.02 C43.54 -77.26, 32.53 -73.5, 26.16 -71.32" stroke="#1e1e1e" stroke-width="2" fill="none"></path></g><g transform="translate(576.0463929414342 647.2030404284429) rotate(0 46.95691776272702 -35.66004350848846)"><path d="M54.15 -60.5 C44.24 -64.33, 34.33 -68.16, 26.16 -71.32 M54.15 -60.5 C43.29 -64.7, 32.44 -68.89, 26.16 -71.32" stroke="#1e1e1e" stroke-width="2" fill="none"></path></g></g><mask></mask><g transform="translate(230.03879739746117 623.6246561317437) rotate(0 214.32678222656256 27.26332885064494)"><text x="0" y="0" font-family="Virgil, Segoe UI Emoji" font-size="21.810663080515937px" fill="#1e1e1e" text-anchor="start" style="white-space: pre;" direction="ltr" dominant-baseline="text-before-edge">After generating the image,</text><text x="0" y="27.26332885064492" font-family="Virgil, Segoe UI Emoji" font-size="21.810663080515937px" fill="#1e1e1e" text-anchor="start" style="white-space: pre;" direction="ltr" dominant-baseline="text-before-edge">it's stored and shared with the others.</text></g><g stroke-opacity="0.6" fill-opacity="0.6" transform="translate(853.7557534497236 10) rotate(0 5.9799957275390625 12.5)"><text x="0" y="0" font-family="Virgil, Segoe UI Emoji" font-size="20px" fill="#1e1e1e" text-anchor="start" style="white-space: pre;" direction="ltr" dominant-baseline="text-before-edge" id="removeHints" cursor="pointer" >X</text></g></svg>